# xmcd CD database file
#
# Track frame offsets:
#	150
#	18371
#	34023
#	50255
#	62817
#	73002
#	82800
#	100258
#	115308
#	132465
#
# Disc length: 2018 seconds
#
# Revision: 2
# Processed by: cddbd v1.5.2PL0 Copyright (c) Steve Scherf et al.
# Submitted via: CDex 1.79
#
DISCID=8107e00a
DTITLE=Lee Kernaghan - Bringing The Music Home
DYEAR=2010
DGENRE=Country
TTITLE0=Bringing The Music Home
TTITLE1=Fire (featuring Robyn McKelvie)
TTITLE2=Feeling Pretty Naked
TTITLE3=Kerosene Lane
TTITLE4=My Outback World (RM Williams Outback Spectacular Theme)
TTITLE5=Great Balls Of Fire (live)
TTITLE6=Spirit Of The Bush (live)
TTITLE7=Talk Of The Town
TTITLE8=Family Tradition (featuring Ray Kernaghan)
TTITLE9=Texas Qld 4385 (live)
EXTD=YEAR: 2010
EXTT0=
EXTT1=
EXTT2=
EXTT3=
EXTT4=
EXTT5=
EXTT6=
EXTT7=
EXTT8=
EXTT9=
PLAYORDER=
